# xmcd
#
# Track frame offsets:
#	150
#	29632
#	56135
#	80102
#	98220
#	116052
#
# Disc length: 1852 seconds
#
# Revision: 1
# Processed by: cddbd v1.5.2PL0 Copyright (c) Steve Scherf et al.
# Submitted via: audiograbber 1.83.01
#
DISCID=53073a06
DTITLE=Mason South - 3 Rooms E.P.
DYEAR=2003
DGENRE=Country Rock
TTITLE0=3 Rooms
TTITLE1=Miss Sippy
TTITLE2=Have Your Own Way
TTITLE3=Room With A View
TTITLE4='49 Ford
TTITLE5=Menthol Cigarette
EXTD=
EXTT0=
EXTT1=
EXTT2=
EXTT3=
EXTT4=
EXTT5=
PLAYORDER=
